<svg xmlns="http://www.w3.org/2000/svg" xmlns:xlink="http://www.w3.org/1999/xlink" contentStyleType="text/css" data-diagram-type="CLASS" height="613px" preserveAspectRatio="none" style="width:624px;height:613px;background:#FFFFFF;" version="1.1" viewBox="0 0 624 613" width="624px" zoomAndPan="magnify"><?plantuml 1.2026.3beta6?><defs/><g><!--class race--><g class="entity" data-qualified-name="race" data-source-line="3" id="ent0002"><rect fill="#F1F1F1" height="96.8906" rx="2.5" ry="2.5" style="stroke:#181818;stroke-width:0.5;" width="178.2363" x="160.65" y="15.14"/><ellipse cx="230.1954" cy="31.14" fill="#ADD1B2" rx="11" ry="11" style="stroke:#181818;stroke-width:1;"/><path d="M233.1642,36.7806 Q232.586,37.0775 231.9454,37.2181 Q231.3048,37.3744 230.6017,37.3744 Q228.1017,37.3744 226.7735,35.7337 Q225.461,34.0775 225.461,30.9525 Q225.461,27.8275 226.7735,26.1712 Q228.1017,24.515 230.6017,24.515 Q231.3048,24.515 231.9454,24.6712 Q232.6017,24.8275 233.1642,25.1244 L233.1642,27.8431 Q232.5392,27.265 231.9454,26.9994 Q231.3517,26.7181 230.7267,26.7181 Q229.3829,26.7181 228.6954,27.7962 Q228.0079,28.8587 228.0079,30.9525 Q228.0079,33.0462 228.6954,34.1244 Q229.3829,35.1869 230.7267,35.1869 Q231.3517,35.1869 231.9454,34.9212 Q232.5392,34.64 233.1642,34.0619 L233.1642,36.7806 Z " fill="#000000"/><text fill="#000000" font-family="sans-serif" font-size="14" lengthAdjust="spacing" textLength="30.6455" x="250.6954" y="35.9867">race</text><line style="stroke:#181818;stroke-width:0.5;" x1="161.65" x2="337.8863" y1="47.14" y2="47.14"/><text fill="#000000" font-family="sans-serif" font-size="14" lengthAdjust="spacing" textLength="56.376" x="166.65" y="64.1351">+id : int</text><line style="stroke:#181818;stroke-width:0.5;" x1="161.65" x2="337.8863" y1="71.4369" y2="71.4369"/><text fill="#000000" font-family="sans-serif" font-size="14" lengthAdjust="spacing" textLength="147.5947" x="166.65" y="88.432">+nom : varchar(100)</text><text fill="#000000" font-family="sans-serif" font-size="14" lengthAdjust="spacing" textLength="166.2363" x="166.65" y="104.7289">+espece : varchar(100)</text></g><!--class animal--><g class="entity" data-qualified-name="animal" data-source-line="9" id="ent0003"><rect fill="#F1F1F1" height="178.375" rx="2.5" ry="2.5" style="stroke:#181818;stroke-width:0.5;" width="318.8994" x="90.32" y="197.18"/><ellipse cx="221.7956" cy="213.18" fill="#ADD1B2" rx="11" ry="11" style="stroke:#181818;stroke-width:1;"/><path d="M224.7643,218.8206 Q224.1862,219.1175 223.5456,219.2581 Q222.905,219.4144 222.2018,219.4144 Q219.7018,219.4144 218.3737,217.7738 Q217.0612,216.1175 217.0612,212.9925 Q217.0612,209.8675 218.3737,208.2113 Q219.7018,206.555 222.2018,206.555 Q222.905,206.555 223.5456,206.7113 Q224.2018,206.8675 224.7643,207.1644 L224.7643,209.8831 Q224.1393,209.305 223.5456,209.0394 Q222.9518,208.7581 222.3268,208.7581 Q220.9831,208.7581 220.2956,209.8363 Q219.6081,210.8988 219.6081,212.9925 Q219.6081,215.0863 220.2956,216.1644 Q220.9831,217.2269 222.3268,217.2269 Q222.9518,217.2269 223.5456,216.9613 Q224.1393,216.68 224.7643,216.1019 L224.7643,218.8206 Z " fill="#000000"/><text fill="#000000" font-family="sans-serif" font-size="14" lengthAdjust="spacing" textLength="47.4482" x="242.2956" y="218.0267">animal</text><line style="stroke:#181818;stroke-width:0.5;" x1="91.32" x2="408.2194" y1="229.18" y2="229.18"/><text fill="#000000" font-family="sans-serif" font-size="14" lengthAdjust="spacing" textLength="56.376" x="96.32" y="246.1751">+id : int</text><text fill="#000000" font-family="sans-serif" font-size="14" lengthAdjust="spacing" textLength="69.6787" x="96.32" y="262.472">+age : int</text><text fill="#000000" font-family="sans-serif" font-size="14" lengthAdjust="spacing" textLength="140.5469" x="96.32" y="278.7689">+sexe : enum{M,F}</text><text fill="#000000" font-family="sans-serif" font-size="14" lengthAdjust="spacing" textLength="94.0215" x="96.32" y="295.0657">+race_id : int</text><text fill="#000000" font-family="sans-serif" font-size="14" lengthAdjust="spacing" textLength="131.0654" x="96.32" y="311.3626">+description : text</text><text fill="#000000" font-family="sans-serif" font-size="14" lengthAdjust="spacing" textLength="306.8994" x="96.32" y="327.6595">+statut : enum{disponible,reserve,adopte}</text><text fill="#000000" font-family="sans-serif" font-size="14" lengthAdjust="spacing" textLength="144.9766" x="96.32" y="343.9564">+date_arrivee : date</text><line style="stroke:#181818;stroke-width:0.5;" x1="91.32" x2="408.2194" y1="351.2581" y2="351.2581"/><text fill="#000000" font-family="sans-serif" font-size="14" lengthAdjust="spacing" textLength="147.5947" x="96.32" y="368.2532">+nom : varchar(100)</text></g><!--class photo--><g class="entity" data-qualified-name="photo" data-source-line="20" id="ent0004"><rect fill="#F1F1F1" height="113.1875" rx="2.5" ry="2.5" style="stroke:#181818;stroke-width:0.5;" width="189.543" x="7" y="468.86"/><ellipse cx="77.3315" cy="484.86" fill="#ADD1B2" rx="11" ry="11" style="stroke:#181818;stroke-width:1;"/><path d="M80.3003,490.5006 Q79.7222,490.7975 79.0815,490.9381 Q78.4409,491.0944 77.7378,491.0944 Q75.2378,491.0944 73.9097,489.4538 Q72.5972,487.7975 72.5972,484.6725 Q72.5972,481.5475 73.9097,479.8913 Q75.2378,478.235 77.7378,478.235 Q78.4409,478.235 79.0815,478.3913 Q79.7378,478.5475 80.3003,478.8444 L80.3003,481.5631 Q79.6753,480.985 79.0815,480.7194 Q78.4878,480.4381 77.8628,480.4381 Q76.519,480.4381 75.8315,481.5163 Q75.144,482.5788 75.144,484.6725 Q75.144,486.7663 75.8315,487.8444 Q76.519,488.9069 77.8628,488.9069 Q78.4878,488.9069 79.0815,488.6413 Q79.6753,488.36 80.3003,487.7819 L80.3003,490.5006 Z " fill="#000000"/><text fill="#000000" font-family="sans-serif" font-size="14" lengthAdjust="spacing" textLength="40.3799" x="97.8315" y="489.7067">photo</text><line style="stroke:#181818;stroke-width:0.5;" x1="8" x2="195.543" y1="500.86" y2="500.86"/><text fill="#000000" font-family="sans-serif" font-size="14" lengthAdjust="spacing" textLength="56.376" x="13" y="517.8551">+id : int</text><text fill="#000000" font-family="sans-serif" font-size="14" lengthAdjust="spacing" textLength="110.8242" x="13" y="534.152">+animal_id : int</text><line style="stroke:#181818;stroke-width:0.5;" x1="8" x2="195.543" y1="541.4538" y2="541.4538"/><text fill="#000000" font-family="sans-serif" font-size="14" lengthAdjust="spacing" textLength="177.543" x="13" y="558.4489">+filename : varchar(255)</text><text fill="#000000" font-family="sans-serif" font-size="14" lengthAdjust="spacing" textLength="169.3535" x="13" y="574.7457">+alt_text : varchar(255)</text></g><!--class adoption_request--><g class="entity" data-qualified-name="adoption_request" data-source-line="27" id="ent0005"><rect fill="#F1F1F1" height="145.7813" rx="2.5" ry="2.5" style="stroke:#181818;stroke-width:0.5;" width="332.8379" x="231.35" y="452.56"/><ellipse cx="332.3886" cy="468.56" fill="#ADD1B2" rx="11" ry="11" style="stroke:#181818;stroke-width:1;"/><path d="M335.3573,474.2006 Q334.7792,474.4975 334.1386,474.6381 Q333.4979,474.7944 332.7948,474.7944 Q330.2948,474.7944 328.9667,473.1538 Q327.6542,471.4975 327.6542,468.3725 Q327.6542,465.2475 328.9667,463.5913 Q330.2948,461.935 332.7948,461.935 Q333.4979,461.935 334.1386,462.0913 Q334.7948,462.2475 335.3573,462.5444 L335.3573,465.2631 Q334.7323,464.685 334.1386,464.4194 Q333.5448,464.1381 332.9198,464.1381 Q331.5761,464.1381 330.8886,465.2163 Q330.2011,466.2788 330.2011,468.3725 Q330.2011,470.4663 330.8886,471.5444 Q331.5761,472.6069 332.9198,472.6069 Q333.5448,472.6069 334.1386,472.3413 Q334.7323,472.06 335.3573,471.4819 L335.3573,474.2006 Z " fill="#000000"/><text fill="#000000" font-family="sans-serif" font-size="14" lengthAdjust="spacing" textLength="122.2607" x="352.8886" y="473.4067">adoption_request</text><line style="stroke:#181818;stroke-width:0.5;" x1="232.35" x2="563.1879" y1="484.56" y2="484.56"/><text fill="#000000" font-family="sans-serif" font-size="14" lengthAdjust="spacing" textLength="56.376" x="237.35" y="501.5551">+id : int</text><text fill="#000000" font-family="sans-serif" font-size="14" lengthAdjust="spacing" textLength="110.8242" x="237.35" y="517.852">+animal_id : int</text><text fill="#000000" font-family="sans-serif" font-size="14" lengthAdjust="spacing" textLength="116.1426" x="237.35" y="534.1489">+message : text</text><text fill="#000000" font-family="sans-serif" font-size="14" lengthAdjust="spacing" textLength="320.8379" x="237.35" y="550.4457">+status : enum{nouvelle,en_cours,terminee}</text><line style="stroke:#181818;stroke-width:0.5;" x1="232.35" x2="563.1879" y1="557.7475" y2="557.7475"/><text fill="#000000" font-family="sans-serif" font-size="14" lengthAdjust="spacing" textLength="193.7578" x="237.35" y="574.7426">+user_name : varchar(255)</text><text fill="#000000" font-family="sans-serif" font-size="14" lengthAdjust="spacing" textLength="192.6641" x="237.35" y="591.0395">+user_email : varchar(255)</text></g><!--class user--><g class="entity" data-qualified-name="user" data-source-line="36" id="ent0006"><rect fill="#F1F1F1" height="113.1875" rx="2.5" ry="2.5" style="stroke:#181818;stroke-width:0.5;" width="235.8496" x="373.85" y="7"/><ellipse cx="472.2567" cy="23" fill="#ADD1B2" rx="11" ry="11" style="stroke:#181818;stroke-width:1;"/><path d="M475.2255,28.6406 Q474.6474,28.9375 474.0067,29.0781 Q473.3661,29.2344 472.663,29.2344 Q470.163,29.2344 468.8349,27.5938 Q467.5224,25.9375 467.5224,22.8125 Q467.5224,19.6875 468.8349,18.0313 Q470.163,16.375 472.663,16.375 Q473.3661,16.375 474.0067,16.5313 Q474.663,16.6875 475.2255,16.9844 L475.2255,19.7031 Q474.6005,19.125 474.0067,18.8594 Q473.413,18.5781 472.788,18.5781 Q471.4442,18.5781 470.7567,19.6563 Q470.0692,20.7188 470.0692,22.8125 Q470.0692,24.9063 470.7567,25.9844 Q471.4442,27.0469 472.788,27.0469 Q473.413,27.0469 474.0067,26.7813 Q474.6005,26.5 475.2255,25.9219 L475.2255,28.6406 Z " fill="#000000"/><text fill="#000000" font-family="sans-serif" font-size="14" lengthAdjust="spacing" textLength="30.5361" x="492.7567" y="27.8467">user</text><line style="stroke:#181818;stroke-width:0.5;" x1="374.85" x2="608.6996" y1="39" y2="39"/><text fill="#000000" font-family="sans-serif" font-size="14" lengthAdjust="spacing" textLength="56.376" x="379.85" y="55.9951">+id : int</text><text fill="#000000" font-family="sans-serif" font-size="14" lengthAdjust="spacing" textLength="199.5" x="379.85" y="72.292">+role : enum{admin,editor}</text><line style="stroke:#181818;stroke-width:0.5;" x1="374.85" x2="608.6996" y1="79.5938" y2="79.5938"/><text fill="#000000" font-family="sans-serif" font-size="14" lengthAdjust="spacing" textLength="155.1279" x="379.85" y="96.5889">+email : varchar(255)</text><text fill="#000000" font-family="sans-serif" font-size="14" lengthAdjust="spacing" textLength="223.8496" x="379.85" y="112.8857">+password_hash : varchar(255)</text></g><!--link race to animal--><g class="link" data-entity-1="ent0002" data-entity-2="ent0003" data-link-type="association" data-source-line="44" id="lnk7"><path codeLine="44" d="M249.77,112.5 C249.77,137.23 249.77,168.2 249.77,197.06" fill="none" id="race-animal" style="stroke:#181818;stroke-width:1;"/><text fill="#000000" font-family="sans-serif" font-size="13" lengthAdjust="spacing" textLength="22.9785" x="250.77" y="163.2469">has</text><text fill="#000000" font-family="sans-serif" font-size="13" lengthAdjust="spacing" textLength="8.271" x="241.251" y="132.1565">1</text><text fill="#000000" font-family="sans-serif" font-size="13" lengthAdjust="spacing" textLength="23.0356" x="225.8192" y="186.1155">0..*</text></g><!--link animal to photo--><g class="link" data-entity-1="ent0003" data-entity-2="ent0004" data-link-type="association" data-source-line="45" id="lnk8"><path codeLine="45" d="M194.45,375.99 C175.07,407.03 153.87,440.99 136.64,468.6" fill="none" id="animal-photo" style="stroke:#181818;stroke-width:1;"/><text fill="#000000" font-family="sans-serif" font-size="13" lengthAdjust="spacing" textLength="22.9785" x="176.77" y="418.6269">has</text><text fill="#000000" font-family="sans-serif" font-size="13" lengthAdjust="spacing" textLength="8.271" x="181.9187" y="395.4979">1</text><text fill="#000000" font-family="sans-serif" font-size="13" lengthAdjust="spacing" textLength="23.0356" x="116.4902" y="457.8319">0..*</text></g><!--link animal to adoption_request--><g class="link" data-entity-1="ent0003" data-entity-2="ent0005" data-link-type="association" data-source-line="46" id="lnk9"><path codeLine="46" d="M305.09,375.99 C320.77,401.11 337.65,428.15 352.65,452.18" fill="none" id="animal-adoption_request" style="stroke:#181818;stroke-width:1;"/><text fill="#000000" font-family="sans-serif" font-size="13" lengthAdjust="spacing" textLength="54.5645" x="333.77" y="418.6269">receives</text><text fill="#000000" font-family="sans-serif" font-size="13" lengthAdjust="spacing" textLength="8.271" x="301.0296" y="395.4979">1</text><text fill="#000000" font-family="sans-serif" font-size="13" lengthAdjust="spacing" textLength="23.0356" x="324.2552" y="441.5548">0..*</text></g><?plantuml-src ZLBBJiD03BpdArQvy4gh5AcNthWWSU027n2vYI4hzX5i9rHK_NTs4z8dHRsjFRPdF6l-qAu10gjA0ymF8gINhU1JwTsh_aQL9qcFA88IrJfHwavNQg6qa_XsteQW0ofheEjPdj_4B7A3eVe8s8oZm6aBvj9Xy8wx4iPLZD2rTlsSFMvYBYehzkTKo2NfHhHt8Icu6be5f9MnkTBSUAUN1ZD2HkemWyetWlt82WGB8D8THheOxkGtjHT_gdxOwa38cpRemEuxSJ-V3riPAQAoOsXdKbGJDYW8FrjakOYm3PiKPnXx32reymTeaNam-i0k7krolktG1BFG5QLlYJD1ijfXy6ihEJASoZn7sOIMBqzLKGFNV-3apVQheGfS6LPQFFM4L-e53KH_EEalCvsbQZ9HQJwTtgRZXIrKc9ty1eSLmoV-Kt3Y_q9HEEfm4Vm3?></g></svg>